<svg id="visual" viewBox="0 0 900 600" width="900" height="600" xmlns="http://www.w3.org/2000/svg" xmlns:xlink="http://www.w3.org/1999/xlink" version="1.1"><g stroke-width="1" stroke-linejoin="bevel"><path d="M464 297L471 216L436 226Z" fill="#005c51" stroke="#005c51"></path><path d="M436 226L387 320L464 297Z" fill="#041924" stroke="#041924"></path><path d="M464 297L573 215L471 216Z" fill="#00101c" stroke="#00101c"></path><path d="M593 425L617 299L464 297Z" fill="#041924" stroke="#041924"></path><path d="M464 297L617 299L573 215Z" fill="#00101c" stroke="#00101c"></path><path d="M430 433L473 427L464 297Z" fill="#01313c" stroke="#01313c"></path><path d="M271 167L306 338L387 320Z" fill="#00101c" stroke="#00101c"></path><path d="M387 320L430 433L464 297Z" fill="#04202d" stroke="#04202d"></path><path d="M717 184L597 139L573 215Z" fill="#005350" stroke="#005350"></path><path d="M573 215L527 83L471 216Z" fill="#00101c" stroke="#00101c"></path><path d="M434 60L339 119L436 226Z" fill="#032835" stroke="#032835"></path><path d="M286 403L430 433L387 320Z" fill="#041924" stroke="#041924"></path><path d="M597 139L527 83L573 215Z" fill="#003943" stroke="#003943"></path><path d="M436 226L271 167L387 320Z" fill="#004249" stroke="#004249"></path><path d="M434 60L436 226L471 216Z" fill="#003943" stroke="#003943"></path><path d="M527 83L434 60L471 216Z" fill="#005350" stroke="#005350"></path><path d="M339 119L271 167L436 226Z" fill="#005c51" stroke="#005c51"></path><path d="M472 480L593 425L473 427Z" fill="#0a6450" stroke="#0a6450"></path><path d="M473 427L593 425L464 297Z" fill="#004a4d" stroke="#004a4d"></path><path d="M418 501L472 480L430 433Z" fill="#005350" stroke="#005350"></path><path d="M430 433L472 480L473 427Z" fill="#004a4d" stroke="#004a4d"></path><path d="M210 425L286 403L160 335Z" fill="#003943" stroke="#003943"></path><path d="M306 338L286 403L387 320Z" fill="#005c51" stroke="#005c51"></path><path d="M334 498L418 501L430 433Z" fill="#004249" stroke="#004249"></path><path d="M206 85L214 205L271 167Z" fill="#041924" stroke="#041924"></path><path d="M271 167L214 205L306 338Z" fill="#005c51" stroke="#005c51"></path><path d="M611 0L496 0L527 83Z" fill="#0a6450" stroke="#0a6450"></path><path d="M527 83L496 0L434 60Z" fill="#00101c" stroke="#00101c"></path><path d="M434 60L405 0L339 119Z" fill="#0a6450" stroke="#0a6450"></path><path d="M339 119L206 85L271 167Z" fill="#003943" stroke="#003943"></path><path d="M496 0L405 0L434 60Z" fill="#0a6450" stroke="#0a6450"></path><path d="M593 425L719 320L617 299Z" fill="#005c51" stroke="#005c51"></path><path d="M617 299L717 184L573 215Z" fill="#00101c" stroke="#00101c"></path><path d="M719 320L717 184L617 299Z" fill="#032835" stroke="#032835"></path><path d="M597 139L611 0L527 83Z" fill="#0a6450" stroke="#0a6450"></path><path d="M286 403L334 498L430 433Z" fill="#005350" stroke="#005350"></path><path d="M668 0L611 0L597 139Z" fill="#0a6450" stroke="#0a6450"></path><path d="M160 335L286 403L306 338Z" fill="#041924" stroke="#041924"></path><path d="M286 403L210 425L334 498Z" fill="#0a6450" stroke="#0a6450"></path><path d="M461 600L598 531L472 480Z" fill="#032835" stroke="#032835"></path><path d="M472 480L598 531L593 425Z" fill="#041924" stroke="#041924"></path><path d="M593 425L730 410L719 320Z" fill="#003943" stroke="#003943"></path><path d="M461 600L472 480L418 501Z" fill="#04202d" stroke="#04202d"></path><path d="M705 488L730 410L593 425Z" fill="#004a4d" stroke="#004a4d"></path><path d="M808 83L728 92L717 184Z" fill="#004a4d" stroke="#004a4d"></path><path d="M260 0L206 85L339 119Z" fill="#003943" stroke="#003943"></path><path d="M214 205L160 335L306 338Z" fill="#032835" stroke="#032835"></path><path d="M717 184L728 92L597 139Z" fill="#041924" stroke="#041924"></path><path d="M826 207L717 184L719 320Z" fill="#00101c" stroke="#00101c"></path><path d="M89 293L160 335L214 205Z" fill="#005c51" stroke="#005c51"></path><path d="M405 0L260 0L339 119Z" fill="#00101c" stroke="#00101c"></path><path d="M728 92L668 0L597 139Z" fill="#005c51" stroke="#005c51"></path><path d="M598 531L705 488L593 425Z" fill="#004a4d" stroke="#004a4d"></path><path d="M431 600L461 600L418 501Z" fill="#004249" stroke="#004249"></path><path d="M598 531L725 600L705 488Z" fill="#00101c" stroke="#00101c"></path><path d="M431 600L418 501L334 498Z" fill="#005c51" stroke="#005c51"></path><path d="M303 600L431 600L334 498Z" fill="#004249" stroke="#004249"></path><path d="M818 437L819 320L730 410Z" fill="#004249" stroke="#004249"></path><path d="M730 410L819 320L719 320Z" fill="#005350" stroke="#005350"></path><path d="M819 320L826 207L719 320Z" fill="#00101c" stroke="#00101c"></path><path d="M728 92L766 0L668 0Z" fill="#0a6450" stroke="#0a6450"></path><path d="M461 600L591 600L598 531Z" fill="#005350" stroke="#005350"></path><path d="M71 514L215 530L210 425Z" fill="#0a6450" stroke="#0a6450"></path><path d="M210 425L215 530L334 498Z" fill="#0a6450" stroke="#0a6450"></path><path d="M260 0L192 0L206 85Z" fill="#003943" stroke="#003943"></path><path d="M206 85L94 193L214 205Z" fill="#005c51" stroke="#005c51"></path><path d="M94 100L94 193L206 85Z" fill="#00101c" stroke="#00101c"></path><path d="M160 335L108 393L210 425Z" fill="#00101c" stroke="#00101c"></path><path d="M94 193L89 293L214 205Z" fill="#00101c" stroke="#00101c"></path><path d="M215 530L303 600L334 498Z" fill="#0a6450" stroke="#0a6450"></path><path d="M89 293L108 393L160 335Z" fill="#00101c" stroke="#00101c"></path><path d="M826 207L808 83L717 184Z" fill="#041924" stroke="#041924"></path><path d="M808 83L766 0L728 92Z" fill="#04202d" stroke="#04202d"></path><path d="M775 526L818 437L705 488Z" fill="#004249" stroke="#004249"></path><path d="M705 488L818 437L730 410Z" fill="#01313c" stroke="#01313c"></path><path d="M900 296L900 221L826 207Z" fill="#032835" stroke="#032835"></path><path d="M192 0L94 100L206 85Z" fill="#032835" stroke="#032835"></path><path d="M94 193L0 197L89 293Z" fill="#032835" stroke="#032835"></path><path d="M725 600L775 526L705 488Z" fill="#041924" stroke="#041924"></path><path d="M591 600L725 600L598 531Z" fill="#01313c" stroke="#01313c"></path><path d="M900 296L826 207L819 320Z" fill="#01313c" stroke="#01313c"></path><path d="M826 207L900 108L808 83Z" fill="#003943" stroke="#003943"></path><path d="M808 83L900 0L766 0Z" fill="#0a6450" stroke="#0a6450"></path><path d="M900 364L900 296L819 320Z" fill="#004249" stroke="#004249"></path><path d="M900 364L819 320L818 437Z" fill="#004249" stroke="#004249"></path><path d="M71 514L180 600L215 530Z" fill="#0a6450" stroke="#0a6450"></path><path d="M215 530L180 600L303 600Z" fill="#01313c" stroke="#01313c"></path><path d="M900 528L900 364L818 437Z" fill="#003943" stroke="#003943"></path><path d="M900 528L818 437L775 526Z" fill="#041924" stroke="#041924"></path><path d="M900 221L900 108L826 207Z" fill="#004a4d" stroke="#004a4d"></path><path d="M192 0L79 0L94 100Z" fill="#00101c" stroke="#00101c"></path><path d="M94 100L0 197L94 193Z" fill="#003943" stroke="#003943"></path><path d="M725 600L776 600L775 526Z" fill="#032835" stroke="#032835"></path><path d="M0 74L0 197L94 100Z" fill="#00101c" stroke="#00101c"></path><path d="M89 293L0 335L108 393Z" fill="#004249" stroke="#004249"></path><path d="M108 393L71 514L210 425Z" fill="#004a4d" stroke="#004a4d"></path><path d="M0 466L71 514L108 393Z" fill="#005c51" stroke="#005c51"></path><path d="M0 197L0 335L89 293Z" fill="#004a4d" stroke="#004a4d"></path><path d="M0 335L0 404L108 393Z" fill="#003943" stroke="#003943"></path><path d="M79 0L0 74L94 100Z" fill="#003943" stroke="#003943"></path><path d="M900 108L900 0L808 83Z" fill="#032835" stroke="#032835"></path><path d="M71 514L92 600L180 600Z" fill="#00101c" stroke="#00101c"></path><path d="M0 600L92 600L71 514Z" fill="#005c51" stroke="#005c51"></path><path d="M0 404L0 466L108 393Z" fill="#041924" stroke="#041924"></path><path d="M776 600L900 528L775 526Z" fill="#032835" stroke="#032835"></path><path d="M79 0L0 0L0 74Z" fill="#004249" stroke="#004249"></path><path d="M776 600L900 600L900 528Z" fill="#003943" stroke="#003943"></path><path d="M0 466L0 600L71 514Z" fill="#00101c" stroke="#00101c"></path></g></svg>