<?xml version="1.0" encoding="utf-8"?>
<!-- Generator: Adobe Illustrator 25.0.0, SVG Export Plug-In . SVG Version: 6.00 Build 0)  -->
<svg version="1.1" id="Layer_1" xmlns="http://www.w3.org/2000/svg" xmlns:xlink="http://www.w3.org/1999/xlink" x="0px" y="0px"
	 viewBox="0 0 3000 947" style="enable-background:new 0 0 3000 947;" xml:space="preserve">
<style type="text/css">
	.st0{fill:#060B27;}
	.st1{fill:#FFF682;}
	.st2{fill:#00223E;}
	.st3{fill:#E2AAFF;}
	.st4{fill:#FF8176;}
	.st5{fill:#F26D66;}
	.st6{opacity:0.6;fill:#FFFFFF;}
	.st7{fill:#FFFFFF;}
	.st8{opacity:5.000000e-02;fill:#00223E;}
	.st9{opacity:0.99;fill:#FFFFFF;}
	.st10{fill:#001535;}
	.st11{fill:#805AD5;}
	.st12{opacity:7.000000e-02;fill:#001428;}
	.st13{opacity:5.000000e-02;fill:#FFFFFF;}
	.st14{opacity:9.000000e-02;fill:#FFFFFF;}
	.st15{fill:#848484;}
	.st16{fill:#303030;}
</style>
<g>
	<g>
		<path class="st2" d="M1220.8,392.5c29.4,29.7,44.1,67.2,44.1,112.4c0,45.3-14.7,82.7-44.1,112.4c-29.4,29.7-66.9,44.6-112.4,44.6
			c-45.5,0-83-14.9-112.4-44.6c-29.4-29.7-44.1-67.2-44.1-112.4c0-45.3,14.7-82.7,44.1-112.4c29.4-29.7,66.9-44.6,112.4-44.6
			C1153.9,347.9,1191.4,362.8,1220.8,392.5z M1174.2,576c17-18,25.5-41.6,25.5-71.1c0-29.4-8.5-53.1-25.5-71.1
			c-17-18-38.9-26.9-65.8-26.9c-26.9,0-48.8,9-65.8,26.9c-17,18-25.5,41.7-25.5,71.1c0,29.4,8.5,53.1,25.5,71.1
			c17,18,38.9,26.9,65.8,26.9C1135.3,602.9,1157.2,594,1174.2,576z"/>
		<path class="st2" d="M1506.4,655.5l-45-137.5l-3.2-0.7l-45.5,138.2h-54l-77.6-222.3h62.4l44.5,146.4l45.8-146.4h56.1l46.1,146.7
			l43.4-146.7h61.1l-77.6,222.3H1506.4z"/>
		<path class="st2" d="M1864.1,561.8h-161.2c2,15.3,7.6,26.9,17,35c9.3,8.1,21.6,12.1,36.9,12.1c9.6,0,18.3-2,26.1-6.2
			c7.8-4.1,13.4-10.1,16.8-18h60.7c-6.5,22.6-19.3,40.9-38.4,54.9c-19.1,14-41.4,21-66.8,21c-32.8,0-59.7-10.9-80.6-32.7
			c-20.9-21.8-31.4-49.8-31.4-84c0-33.1,10.5-60.7,31.4-82.7c20.9-22.1,47.7-33.1,80.2-33.1c32.5,0,59,11,79.6,32.9
			c20.5,21.9,30.8,49.6,30.8,83L1864.1,561.8z M1754.2,476.5c-13.6,0-24.8,3.8-33.5,11.2c-8.8,7.5-14.4,17.8-17,30.8h101
			c-2.3-12.7-7.8-22.9-16.5-30.6C1779.4,480.3,1768.1,476.5,1754.2,476.5z"/>
		<path class="st2" d="M1968.1,660.6c-24.9,0-44.1-6.2-57.7-18.7c-13.6-12.4-20.4-29-20.4-49.6c0-19.4,7-34.9,21-46.5
			c14-11.5,35.7-19.6,65-24.1l59.5-9.2v-2.1c0-21.8-13.3-32.7-39.9-32.7c-24.9,0-38.6,9.1-41.2,27.2h-59.4c2-21.8,11-40,27.2-54.7
			c16.1-14.7,40.4-22.1,73-22.1c32.2,0,56.6,7.2,73,21.6c16.4,14.4,24.6,34.8,24.6,61.1v104.8c0,16.7,2.1,30,6.4,39.9H2041
			c-0.3,0-0.6-1-0.8-3c-0.3-2-0.6-5-1.1-9.1c-0.4-4.1-0.6-8.3-0.6-12.5C2024.6,650.7,2001.2,660.6,1968.1,660.6z M2035.5,555.9
			l-53.4,8.9c-22.7,3.9-34,12.6-34,26.1c0,15.4,11.2,23.1,33.5,23.1c17.3,0,30.6-4.5,39.9-13.5c9.3-9,14-20.9,14-35.8V555.9z"/>
		<path class="st2" d="M2202.7,655.5h-60.3V337.3h60.3V655.5z"/>
		<path class="st2" d="M2358,602.1v52.2c-6.8,1.7-16.3,2.5-28.4,2.5c-45.5,0-68.3-22.6-68.3-67.9V480.7h-30.1v-47.5h30.1V378h60.3
			v55.2h36.9v47.5h-36.9v101.8c0,14.4,7.5,21.6,22.5,21.6L2358,602.1z"/>
		<path class="st2" d="M2451.3,337.3v116.3c12.7-17,33.2-25.5,61.5-25.5c26.3,0,46.5,8,60.7,24c14.1,16,21.2,37.6,21.2,64.7v138.8
			h-60.3v-132c0-29.1-12.6-43.7-37.8-43.7c-14.4,0-25.6,4.3-33.5,12.9c-7.9,8.6-11.9,20.6-11.9,35.9v126.9h-60.3V337.3H2451.3z"/>
		<path class="st2" d="M2666.5,743.3l36-92.3L2616,433.2h64.1l50,147.2l57.4-147.2h62.8l-124.3,310.6L2666.5,743.3z"/>
	</g>
	<g>
		<path class="st3" d="M807,426.7c0,175.7-142.5,318.2-318.2,318.2c-175.7,0-318.2-142.5-318.2-318.2c0-4.1,0.1-8.2,0.3-12.2
			c0.1-4.7,0.4-9.4,0.8-14.1c4.2-51.6,20.7-99.6,46.6-141.3c1.3-2.1,2.6-4.2,4-6.3l-34.5-124.2l300.9,88.7l300.9-88.7v0l-0.1,0.5
			l-34.3,123.6c1.4,2.1,2.7,4.2,4,6.3c25.9,41.7,42.5,89.8,46.6,141.3c0.4,4.6,0.7,9.3,0.9,14.1C806.9,418.5,807,422.6,807,426.7z"
			/>
		<path class="st4" d="M488.8,385.7v108.1l-52.2-37.8l38.2-52.7l2.9-9.4C479.2,389.1,483.7,385.7,488.8,385.7L488.8,385.7z"/>
		<path class="st5" d="M541,456.1l-52.2,37.8V385.7c2.6,0,4.9,0.9,6.9,2.3c2,1.5,3.4,3.5,4.2,5.9l2.9,9.4L541,456.1z"/>
		<path class="st6" d="M483.3,365c-3-53.1-39.2-100.8-93.4-116c-68.2-19.2-139.1,20.6-158.3,88.8c-2.5,8.9-4,17.8-4.6,26.7
			c-0.8-13.9,0.6-28.1,4.6-42.3c19.2-68.3,90.1-108,158.3-88.8C449.3,250,487.1,305.8,483.3,365z"/>
		<path class="st7" d="M483.3,365c-0.6,8.9-2.1,17.8-4.6,26.7c-19.2,68.3-90.1,108-158.3,88.8c-54.1-15.2-90.3-62.9-93.4-116
			c0.6-8.9,2.1-17.8,4.6-26.7c19.2-68.2,90.1-108,158.3-88.8C444.1,264.2,480.2,311.9,483.3,365z"/>
		<path class="st6" d="M750.6,365c-3-53.2-39.3-100.8-93.3-116.1c-68.3-19.2-139.2,20.6-158.4,88.8c-2.5,8.9-4,17.8-4.6,26.7
			c-0.8-13.9,0.6-28.1,4.6-42.3c19.2-68.3,90.1-108,158.4-88.8C716.6,250,754.4,305.9,750.6,365z"/>
		<path class="st7" d="M750.6,365c-0.6,8.8-2.1,17.7-4.6,26.6c-19.2,68.3-90.1,108-158.4,88.8c-54.1-15.2-90.3-62.9-93.3-116
			c0.6-8.9,2.1-17.8,4.6-26.7c19.2-68.2,90.1-108,158.4-88.8C711.3,264.2,747.5,311.9,750.6,365z"/>
		<path class="st2" d="M451.6,315.1L451.6,315.1c-0.1-0.2-0.3-0.4-0.5-0.6C451.3,314.7,451.4,314.9,451.6,315.1z"/>
		<polygon class="st8" points="222.4,252.9 211.5,165.9 488.8,318.9 187.9,128.7 		"/>
		<polygon class="st8" points="755.3,252.9 767.1,165.9 488.8,318.9 789.7,128.7 		"/>
		<circle class="st2" cx="370.6" cy="385.7" r="71.2"/>
		<circle class="st9" cx="370.6" cy="385.7" r="53.8"/>
		<circle class="st10" cx="378.5" cy="385.7" r="41.8"/>
		<circle class="st2" cx="594.2" cy="385.7" r="71.2"/>
		<circle class="st9" cx="594.2" cy="385.7" r="53.8"/>
		<circle class="st10" cx="586.4" cy="385.7" r="41.8"/>
		<polygon class="st11" points="789.7,128.7 488.8,318.9 187.9,128.7 488.8,217.3 		"/>
		<path class="st11" d="M465,536l31.2,89l40.7,116.3v0.1l26.8,76.5v0.1c0.1,0,0.1,0,0.2-0.1c8.5-3,294.1-105.8,261.3-398.7
			c-0.1-0.6-0.1-1.3-0.2-1.9l-17.3-2.6c-14.5-2.1-29-3.3-43.5-3.7c-20.6-0.8-41,0.2-61.2,2.8C612.8,425,528.2,467.7,465,536z"/>
		<path class="st12" d="M806.7,414.5c-111.1-15.8-222.8,17-307.4,88.6c-3.5-3.2-6.9-6.2-10.5-9.3c72.8-62.2,166.3-97.1,262.8-97.1
			c18.1,0,36.3,1.2,54.3,3.7C806.3,405.1,806.6,409.8,806.7,414.5z"/>
		<path class="st12" d="M528.5,532.7L496.2,625l-7.3-20.9l23.8-68.1c-7.6-8.2-15.6-16.1-23.8-23.6c-3.5-3.1-6.9-6.2-10.5-9.2
			c-84.5-71.7-196.3-104.5-307.4-88.6c0.1-4.7,0.4-9.4,0.8-14.1c17.9-2.5,36.2-3.7,54.3-3.7c96.5,0,190,35,262.8,97.1
			c3.6,3.1,7.1,6.1,10.5,9.3c8.1,7.5,15.9,15.2,23.5,23.4L528.5,532.7z"/>
		<path class="st13" d="M465,536l31.2,89l40.7,116.3v0.1l26.8,76.5c-0.2,0.1-0.4,0.3-0.6,0.5c0.2-0.1,0.3-0.2,0.6-0.4
			c0.1,0,0.1,0,0.2-0.1c77.5-49.5,236.4-180.6,200.3-406.9c-20.6-0.8-41,0.2-61.2,2.8C612.8,425,528.2,467.7,465,536z"/>
		<path class="st13" d="M465,536l31.2,89l40.7,116.3v0.1l26.8,76.5c68.4-61.3,190.7-203.4,139.3-404.2
			C612.8,425,528.2,467.7,465,536z"/>
		<g>
			<path class="st11" d="M512.7,536l-31.2,89l-40.7,116.3v0.1l-26.8,76.5v0.1c-0.1,0-0.1,0-0.2-0.1c-8.5-3-294.1-105.8-261.3-398.7
				c0.1-0.6,0.1-1.3,0.2-1.9l17.3-2.6c14.5-2.1,29-3.3,43.5-3.7c20.6-0.8,41,0.2,61.2,2.8C364.8,425,449.5,467.7,512.7,536z"/>
			<path class="st14" d="M512.7,536l-31.2,89l-40.7,116.3v0.1l-26.8,76.5c0.2,0.1,0.4,0.3,0.6,0.5c-0.2-0.1-0.3-0.2-0.6-0.4
				c-0.1,0-0.1,0-0.2-0.1c-77.5-49.5-236.4-180.6-200.3-406.9c20.6-0.8,41,0.2,61.2,2.8C364.8,425,449.5,467.7,512.7,536z"/>
			<path class="st14" d="M512.7,536l-31.2,89l-40.7,116.3v0.1l-26.8,76.5c-68.4-61.3-190.7-203.4-139.3-404.2
				C364.8,425,449.5,467.7,512.7,536z"/>
		</g>
	</g>
</g>
</svg>
